<?xml version="1.0" encoding="utf-8"?>
<!-- Generator: Adobe Illustrator 19.1.0, SVG Export Plug-In . SVG Version: 6.00 Build 0)  -->
<!DOCTYPE svg PUBLIC "-//W3C//DTD SVG 1.1//EN" "http://www.w3.org/Graphics/SVG/1.1/DTD/svg11.dtd">
<svg version="1.1" id="Layer_1" xmlns="http://www.w3.org/2000/svg" xmlns:xlink="http://www.w3.org/1999/xlink" x="0px" y="0px"
	 viewBox="0 0 2267.7 1133.9" enable-background="new 0 0 2267.7 1133.9" xml:space="preserve">
<g>
	<g>
		<g>
			<polygon fill="#004F9F" points="647.7,204.1 262.2,566.9 670.4,929.8 987.9,612.3 			"/>
		</g>
		<g>
			<polygon fill="#378DCC" points="262.2,566.9 625,317.5 987.9,612.3 670.4,929.8 			"/>
		</g>
		<g>
			<polygon fill="#71CBF4" points="987.9,612.3 602.4,408.2 262.2,566.9 670.4,929.8 			"/>
		</g>
	</g>
	<g>
		<g>
			<path d="M1240.5,676.5h-47.8l-80.2-222.9h55.5l48.7,157.3l48.4-157.3h56.4L1240.5,676.5z"/>
			<path d="M1466.2,523v153.5h-49.1v-21.7c-7.4,14-27.3,25.5-47.1,25.5c-44.6,0-75.3-34.7-75.3-80.6s30.8-80.6,75.3-80.6
				c19.9,0,39.8,11.8,47.1,25.8v-22H1466.2z M1417.2,599.7c0-21-14.7-39.2-36.9-39.2c-22.1,0-36.9,18.2-36.9,39.2
				c0,21.3,14.8,39.2,36.9,39.2C1402.4,638.9,1417.2,621.1,1417.2,599.7z"/>
			<path d="M1483.9,523h49.1v22.3c8.7-16.6,26.6-26.1,50.7-26.1c19.9,0,34.9,6.7,43.3,17.5c9.6,11.8,12.2,26.8,12.2,48.7v91.1H1590
				v-78.7c0-22-6.7-37.3-27.3-37.3c-19.9,0-29.8,15.3-29.8,38.9v77.1h-49.1V523z"/>
			<path d="M1772.1,654.8c-7.4,14-27.3,25.5-47.1,25.5c-44.6,0-75.3-34.7-75.3-80.6s30.8-80.6,75.3-80.6c19.9,0,39.8,11.8,47.1,25.8
				v-91.4h49.1v222.9h-49.1V654.8z M1772.1,599.7c0-21-14.8-39.2-36.9-39.2c-22.1,0-36.9,18.2-36.9,39.2c0,21.3,14.7,39.2,36.9,39.2
				C1757.4,638.9,1772.1,621.1,1772.1,599.7z"/>
			<path d="M2005.5,523v153.5h-49.1v-21.7c-7.4,14-27.3,25.5-47.1,25.5c-44.6,0-75.3-34.7-75.3-80.6s30.8-80.6,75.3-80.6
				c19.9,0,39.8,11.8,47.1,25.8v-22H2005.5z M1956.5,599.7c0-21-14.7-39.2-36.9-39.2c-22.1,0-36.9,18.2-36.9,39.2
				c0,21.3,14.8,39.2,36.9,39.2C1941.7,638.9,1956.5,621.1,1956.5,599.7z"/>
		</g>
	</g>
</g>
</svg>
