<?xml version="1.0" encoding="utf-8"?>
<!-- Generator: Adobe Illustrator 19.1.0, SVG Export Plug-In . SVG Version: 6.00 Build 0)  -->
<!DOCTYPE svg PUBLIC "-//W3C//DTD SVG 1.1//EN" "http://www.w3.org/Graphics/SVG/1.1/DTD/svg11.dtd">
<svg version="1.1" id="Layer_1" xmlns="http://www.w3.org/2000/svg" xmlns:xlink="http://www.w3.org/1999/xlink" x="0px" y="0px"
	 viewBox="0 0 2267.7 1133.9" enable-background="new 0 0 2267.7 1133.9" xml:space="preserve">
<g>
	<polygon points="732,412.9 394,566.9 802.2,929.8 1119.7,612.3 	"/>
	<polygon points="431.9,527.8 756.1,306.9 1094.8,579.6 779.5,204.1 	"/>
	<polygon points="432.8,539.8 732.3,401.3 1091.3,589.6 755.6,319.9 	"/>
</g>
<g>
	<g>
		<path d="M1324.2,544.7h-29.8l-50-139.3h34.6l30.4,98.3l30.2-98.3h35.2L1324.2,544.7z"/>
		<path d="M1464.9,448.8v95.9h-30.6v-13.5c-4.6,8.8-17,15.9-29.4,15.9c-27.8,0-47-21.7-47-50.4s19.2-50.4,47-50.4
			c12.4,0,24.8,7.4,29.4,16.1v-13.7H1464.9z M1434.3,496.7c0-13.1-9.2-24.5-23-24.5s-23,11.3-23,24.5c0,13.3,9.2,24.5,23,24.5
			S1434.3,510.1,1434.3,496.7z"/>
		<path d="M1475.9,448.8h30.6v13.9c5.4-10.4,16.6-16.3,31.6-16.3c12.4,0,21.8,4.2,27,10.9c6,7.4,7.6,16.7,7.6,30.5v56.9h-30.6v-49.2
			c0-13.7-4.2-23.3-17-23.3c-12.4,0-18.6,9.6-18.6,24.3v48.2h-30.6V448.8z"/>
		<path d="M1648.4,544.7c-4.6,0.8-11.4,1.6-20.4,1.6c-14.4,0-34.2-1.8-34.2-33.8v-41h-15.2v-22.7h15.2v-28.5h30.4v28.5h22v22.7h-22
			v34.2c0,14.1,5.6,16.3,13.2,16.3c3.8,0,8.2-0.2,11-0.6V544.7z"/>
		<path d="M1758.8,448.8v95.9h-30.6v-13.5c-4.6,8.8-17,15.9-29.4,15.9c-27.8,0-47-21.7-47-50.4s19.2-50.4,47-50.4
			c12.4,0,24.8,7.4,29.4,16.1v-13.7H1758.8z M1728.2,496.7c0-13.1-9.2-24.5-23-24.5s-23,11.3-23,24.5c0,13.3,9.2,24.5,23,24.5
			S1728.2,510.1,1728.2,496.7z"/>
		<path d="M1873.7,448.8v95.9h-30.6v-13.5c-4.6,8.8-17,15.9-29.4,15.9c-27.8,0-47-21.7-47-50.4s19.2-50.4,47-50.4
			c12.4,0,24.8,7.4,29.4,16.1v-13.7H1873.7z M1843.1,496.7c0-13.1-9.2-24.5-23-24.5s-23,11.3-23,24.5c0,13.3,9.2,24.5,23,24.5
			S1843.1,510.1,1843.1,496.7z"/>
	</g>
</g>
<g>
	<g>
		<path d="M1324,726.1h-29.7l-49.9-139.3h34.5l30.3,98.3l30.1-98.3h35.1L1324,726.1z"/>
		<path d="M1464.5,630.2v95.9h-30.5v-13.5c-4.6,8.8-17,15.9-29.3,15.9c-27.7,0-46.9-21.7-46.9-50.4s19.2-50.4,46.9-50.4
			c12.4,0,24.7,7.4,29.3,16.1v-13.7H1464.5z M1433.9,678.1c0-13.1-9.2-24.5-22.9-24.5S1388,665,1388,678.1
			c0,13.3,9.2,24.5,22.9,24.5S1433.9,691.5,1433.9,678.1z"/>
		<path d="M1475.4,630.2h30.5v13.9c5.4-10.4,16.6-16.3,31.5-16.3c12.4,0,21.7,4.2,26.9,10.9c6,7.4,7.6,16.7,7.6,30.5v56.9h-30.5
			v-49.2c0-13.7-4.2-23.3-17-23.3c-12.4,0-18.6,9.6-18.6,24.3v48.2h-30.5V630.2z"/>
		<path d="M1654.8,712.6c-4.6,8.8-17,15.9-29.3,15.9c-27.7,0-46.9-21.7-46.9-50.4s19.2-50.4,46.9-50.4c12.4,0,24.7,7.4,29.3,16.1
			v-57.1h30.5v139.3h-30.5V712.6z M1654.8,678.1c0-13.1-9.2-24.5-22.9-24.5c-13.8,0-22.9,11.3-22.9,24.5c0,13.3,9.2,24.5,22.9,24.5
			C1645.6,702.6,1654.8,691.5,1654.8,678.1z"/>
		<path d="M1800,630.2v95.9h-30.5v-13.5c-4.6,8.8-17,15.9-29.3,15.9c-27.7,0-46.9-21.7-46.9-50.4s19.2-50.4,46.9-50.4
			c12.4,0,24.7,7.4,29.3,16.1v-13.7H1800z M1769.5,678.1c0-13.1-9.2-24.5-22.9-24.5c-13.8,0-22.9,11.3-22.9,24.5
			c0,13.3,9.2,24.5,22.9,24.5C1760.3,702.6,1769.5,691.5,1769.5,678.1z"/>
	</g>
</g>
</svg>
