<?xml version="1.0" encoding="utf-8"?>
<!-- Generator: Adobe Illustrator 19.1.0, SVG Export Plug-In . SVG Version: 6.00 Build 0)  -->
<!DOCTYPE svg PUBLIC "-//W3C//DTD SVG 1.1//EN" "http://www.w3.org/Graphics/SVG/1.1/DTD/svg11.dtd">
<svg version="1.1" id="Layer_1" xmlns="http://www.w3.org/2000/svg" xmlns:xlink="http://www.w3.org/1999/xlink" x="0px" y="0px"
	 viewBox="0 0 1133.9 1133.9" enable-background="new 0 0 1133.9 1133.9" xml:space="preserve">
<g>
	<g>
		<g>
			<polygon fill="#004F9F" points="589.6,204.1 204.1,566.9 612.3,929.8 929.8,612.3 			"/>
		</g>
		<g>
			<polygon fill="#378DCC" points="204.1,566.9 566.9,317.5 929.8,612.3 612.3,929.8 			"/>
		</g>
		<g>
			<polygon fill="#71CBF4" points="929.8,612.3 544.3,408.2 204.1,566.9 612.3,929.8 			"/>
		</g>
	</g>
	<g>
		<g>
			<path fill="#FFFFFF" d="M408.2,655.4h-23.8l-39.9-111.1h27.6l24.3,78.4l24.1-78.4h28.1L408.2,655.4z"/>
			<path fill="#FFFFFF" d="M520.7,578.9v76.5h-24.4v-10.8c-3.7,7-13.6,12.7-23.5,12.7c-22.2,0-37.6-17.3-37.6-40.2
				s15.3-40.2,37.6-40.2c9.9,0,19.8,5.9,23.5,12.9v-11H520.7z M496.2,617.1c0-10.5-7.4-19.5-18.4-19.5c-11,0-18.4,9-18.4,19.5
				c0,10.6,7.4,19.5,18.4,19.5C488.9,636.6,496.2,627.8,496.2,617.1z"/>
			<path fill="#FFFFFF" d="M529.5,578.9h24.4V590c4.3-8.3,13.3-13,25.2-13c9.9,0,17.4,3.3,21.6,8.7c4.8,5.9,6.1,13.3,6.1,24.3v45.4
				h-24.4v-39.2c0-11-3.4-18.6-13.6-18.6c-9.9,0-14.9,7.6-14.9,19.4v38.4h-24.4V578.9z"/>
			<path fill="#FFFFFF" d="M673.1,644.6c-3.7,7-13.6,12.7-23.5,12.7c-22.2,0-37.6-17.3-37.6-40.2s15.3-40.2,37.6-40.2
				c9.9,0,19.8,5.9,23.5,12.9v-45.6h24.4v111.1h-24.4V644.6z M673.1,617.1c0-10.5-7.4-19.5-18.4-19.5c-11,0-18.4,9-18.4,19.5
				c0,10.6,7.4,19.5,18.4,19.5C665.8,636.6,673.1,627.8,673.1,617.1z"/>
			<path fill="#FFFFFF" d="M789.4,578.9v76.5H765v-10.8c-3.7,7-13.6,12.7-23.5,12.7c-22.2,0-37.6-17.3-37.6-40.2
				s15.3-40.2,37.6-40.2c9.9,0,19.8,5.9,23.5,12.9v-11H789.4z M765,617.1c0-10.5-7.4-19.5-18.4-19.5c-11,0-18.4,9-18.4,19.5
				c0,10.6,7.4,19.5,18.4,19.5C757.6,636.6,765,627.8,765,617.1z"/>
		</g>
	</g>
</g>
</svg>
