<?xml version="1.0" encoding="utf-8"?>
<!-- Generator: Adobe Illustrator 19.1.0, SVG Export Plug-In . SVG Version: 6.00 Build 0)  -->
<!DOCTYPE svg PUBLIC "-//W3C//DTD SVG 1.1//EN" "http://www.w3.org/Graphics/SVG/1.1/DTD/svg11.dtd">
<svg version="1.1" id="Layer_1" xmlns="http://www.w3.org/2000/svg" xmlns:xlink="http://www.w3.org/1999/xlink" x="0px" y="0px"
	 viewBox="0 0 1133.9 1133.9" enable-background="new 0 0 1133.9 1133.9" xml:space="preserve">
<g>
	<g>
		<g>
			<polygon fill="#004F9F" points="589.6,85 204.1,447.9 612.3,810.7 929.8,493.2 			"/>
		</g>
		<g>
			<polygon fill="#378DCC" points="204.1,447.9 566.9,198.4 929.8,493.2 612.3,810.7 			"/>
		</g>
		<g>
			<polygon fill="#71CBF4" points="929.8,493.2 544.3,289.1 204.1,447.9 612.3,810.7 			"/>
		</g>
	</g>
	<g>
		<g>
			<path d="M336,1046h-34.6l-58.1-161.6h40.2l35.3,114.1l35.1-114.1h40.9L336,1046z"/>
			<path d="M499.6,934.7V1046h-35.6v-15.7c-5.3,10.2-19.8,18.5-34.2,18.5c-32.3,0-54.6-25.2-54.6-58.4s22.3-58.4,54.6-58.4
				c14.4,0,28.8,8.5,34.2,18.7v-15.9H499.6z M464.1,990.4c0-15.2-10.7-28.4-26.7-28.4c-16,0-26.7,13.2-26.7,28.4
				c0,15.5,10.7,28.4,26.7,28.4C453.4,1018.8,464.1,1005.9,464.1,990.4z"/>
			<path d="M512.4,934.7H548v16.2c6.3-12,19.3-18.9,36.7-18.9c14.4,0,25.3,4.8,31.4,12.7c7,8.5,8.8,19.4,8.8,35.3v66h-35.6v-57
				c0-15.9-4.9-27-19.8-27c-14.4,0-21.6,11.1-21.6,28.2v55.9h-35.6V934.7z"/>
			<path d="M721.4,1030.3c-5.3,10.2-19.8,18.5-34.2,18.5c-32.3,0-54.6-25.2-54.6-58.4s22.3-58.4,54.6-58.4
				c14.4,0,28.8,8.5,34.2,18.7v-66.3H757V1046h-35.6V1030.3z M721.4,990.4c0-15.2-10.7-28.4-26.7-28.4c-16,0-26.7,13.2-26.7,28.4
				c0,15.5,10.7,28.4,26.7,28.4C710.7,1018.8,721.4,1005.9,721.4,990.4z"/>
			<path d="M890.6,934.7V1046H855v-15.7c-5.3,10.2-19.8,18.5-34.2,18.5c-32.3,0-54.6-25.2-54.6-58.4s22.3-58.4,54.6-58.4
				c14.4,0,28.8,8.5,34.2,18.7v-15.9H890.6z M855,990.4c0-15.2-10.7-28.4-26.7-28.4c-16,0-26.7,13.2-26.7,28.4
				c0,15.5,10.7,28.4,26.7,28.4C844.4,1018.8,855,1005.9,855,990.4z"/>
		</g>
	</g>
</g>
</svg>
