<?xml version="1.0" encoding="utf-8"?>
<!-- Generator: Adobe Illustrator 19.1.0, SVG Export Plug-In . SVG Version: 6.00 Build 0)  -->
<!DOCTYPE svg PUBLIC "-//W3C//DTD SVG 1.1//EN" "http://www.w3.org/Graphics/SVG/1.1/DTD/svg11.dtd">
<svg version="1.1" id="Layer_1" xmlns="http://www.w3.org/2000/svg" xmlns:xlink="http://www.w3.org/1999/xlink" x="0px" y="0px"
	 viewBox="0 0 1133.9 1133.9" enable-background="new 0 0 1133.9 1133.9" xml:space="preserve">
<g>
	<g>
		<g>
			<polygon fill="#004F9F" points="589.6,85 204.1,447.9 612.3,810.7 929.8,493.2 			"/>
		</g>
		<g>
			<polygon fill="#378DCC" points="204.1,447.9 566.9,198.4 929.8,493.2 612.3,810.7 			"/>
		</g>
		<g>
			<polygon fill="#71CBF4" points="929.8,493.2 544.3,289.1 204.1,447.9 612.3,810.7 			"/>
		</g>
	</g>
	<g>
		<g>
			<path d="M296.1,1046h-34.3l-57.6-161.6H244l35,114.1l34.8-114.1h40.6L296.1,1046z"/>
			<path d="M458.4,934.7V1046h-35.3v-15.7c-5.3,10.2-19.6,18.5-33.9,18.5c-32,0-54.2-25.2-54.2-58.4s22.1-58.4,54.2-58.4
				c14.3,0,28.6,8.5,33.9,18.7v-15.9H458.4z M423.1,990.4c0-15.2-10.6-28.4-26.5-28.4c-15.9,0-26.5,13.2-26.5,28.4
				c0,15.5,10.6,28.4,26.5,28.4C412.5,1018.8,423.1,1005.9,423.1,990.4z"/>
			<path d="M471,934.7h35.3v16.2c6.2-12,19.1-18.9,36.4-18.9c14.3,0,25.1,4.8,31.1,12.7c6.9,8.5,8.8,19.4,8.8,35.3v66h-35.3v-57
				c0-15.9-4.8-27-19.6-27c-14.3,0-21.4,11.1-21.4,28.2v55.9H471V934.7z"/>
			<path d="M670,1046c-5.3,0.9-13.1,1.8-23.5,1.8c-16.6,0-39.4-2.1-39.4-39.3v-47.6h-17.5v-26.3H607v-33h35v33h25.4v26.3h-25.4v39.7
				c0,16.4,6.5,18.9,15.2,18.9c4.4,0,9.5-0.2,12.7-0.7V1046z"/>
			<path d="M797.2,934.7V1046h-35.3v-15.7c-5.3,10.2-19.6,18.5-33.9,18.5c-32,0-54.2-25.2-54.2-58.4S696,932,728.1,932
				c14.3,0,28.6,8.5,33.9,18.7v-15.9H797.2z M761.9,990.4c0-15.2-10.6-28.4-26.5-28.4c-15.9,0-26.5,13.2-26.5,28.4
				c0,15.5,10.6,28.4,26.5,28.4C751.3,1018.8,761.9,1005.9,761.9,990.4z"/>
			<path d="M929.8,934.7V1046h-35.3v-15.7c-5.3,10.2-19.6,18.5-33.9,18.5c-32,0-54.2-25.2-54.2-58.4s22.1-58.4,54.2-58.4
				c14.3,0,28.6,8.5,33.9,18.7v-15.9H929.8z M894.5,990.4c0-15.2-10.6-28.4-26.5-28.4c-15.9,0-26.5,13.2-26.5,28.4
				c0,15.5,10.6,28.4,26.5,28.4C883.9,1018.8,894.5,1005.9,894.5,990.4z"/>
		</g>
	</g>
</g>
</svg>
