<svg xmlns="http://www.w3.org/2000/svg" viewBox="0 0 2267.7 1133.9"><path fill="#004F9F" d="M647.7 204.1L262.2 566.9l408.2 362.9 317.5-317.5"/><path fill="#378DCC" d="M262.2 566.9L625 317.5l362.9 294.8-317.5 317.5"/><path fill="#71CBF4" d="M987.9 612.3L602.4 408.2 262.2 566.9l408.2 362.9"/><g><path d="M1240.5 676.5h-47.8l-80.2-222.9h55.5l48.7 157.3 48.4-157.3h56.4l-81 222.9zM1466.2 523v153.5h-49.1v-21.7c-7.4 14-27.3 25.5-47.1 25.5-44.6 0-75.3-34.7-75.3-80.6s30.8-80.6 75.3-80.6c19.9 0 39.8 11.8 47.1 25.8v-22h49.1zm-49 76.7c0-21-14.7-39.2-36.9-39.2-22.1 0-36.9 18.2-36.9 39.2 0 21.3 14.8 39.2 36.9 39.2 22.1 0 36.9-17.8 36.9-39.2zM1483.9 523h49.1v22.3c8.7-16.6 26.6-26.1 50.7-26.1 19.9 0 34.9 6.7 43.3 17.5 9.6 11.8 12.2 26.8 12.2 48.7v91.1H1590v-78.7c0-22-6.7-37.3-27.3-37.3-19.9 0-29.8 15.3-29.8 38.9v77.1h-49.1V523zM1772.1 654.8c-7.4 14-27.3 25.5-47.1 25.5-44.6 0-75.3-34.7-75.3-80.6s30.8-80.6 75.3-80.6c19.9 0 39.8 11.8 47.1 25.8v-91.4h49.1v222.9h-49.1v-21.6zm0-55.1c0-21-14.8-39.2-36.9-39.2-22.1 0-36.9 18.2-36.9 39.2 0 21.3 14.7 39.2 36.9 39.2s36.9-17.8 36.9-39.2zM2005.5 523v153.5h-49.1v-21.7c-7.4 14-27.3 25.5-47.1 25.5-44.6 0-75.3-34.7-75.3-80.6s30.8-80.6 75.3-80.6c19.9 0 39.8 11.8 47.1 25.8v-22h49.1zm-49 76.7c0-21-14.7-39.2-36.9-39.2-22.1 0-36.9 18.2-36.9 39.2 0 21.3 14.8 39.2 36.9 39.2 22.1 0 36.9-17.8 36.9-39.2z"/></g></svg>