<svg xmlns="http://www.w3.org/2000/svg" viewBox="0 0 2267.7 1133.9"><path fill="#004F9F" d="M589.6 204.1L204.1 566.9l408.2 362.9 317.5-317.5"/><path fill="#378DCC" d="M204.1 566.9l362.8-249.4 362.9 294.8-317.5 317.5"/><path fill="#71CBF4" d="M929.8 612.3L544.3 408.2 204.1 566.9l408.2 362.9"/><g><path d="M1182.4 676.5h-47.8l-80.1-222.9h55.5l48.7 157.3 48.4-157.3h56.4l-81.1 222.9zM1408.1 523v153.5h-49v-21.7c-7.4 14-27.2 25.5-47.1 25.5-44.6 0-75.3-34.7-75.3-80.6 0-45.9 30.8-80.6 75.3-80.6 19.9 0 39.8 11.8 47.1 25.8v-22h49zm-49.1 76.7c0-21-14.7-39.2-36.9-39.2-22.1 0-36.9 18.2-36.9 39.2 0 21.3 14.7 39.2 36.9 39.2s36.9-17.8 36.9-39.2zM1425.7 523h49v22.3c8.7-16.6 26.6-26.1 50.7-26.1 19.9 0 34.9 6.7 43.3 17.5 9.6 11.8 12.2 26.8 12.2 48.7v91.1h-49v-78.7c0-22-6.7-37.3-27.2-37.3-19.9 0-29.8 15.3-29.8 38.9v77.1h-49V523zM1702.3 676.5c-7.4 1.3-18.3 2.5-32.7 2.5-23.1 0-54.8-2.9-54.8-54.1v-65.6h-24.4V523h24.4v-45.5h48.7V523h35.3v36.3h-35.3v54.8c0 22.6 9 26.1 21.2 26.1 6.1 0 13.1-.3 17.6-1v37.3zM1879.3 523v153.5h-49v-21.7c-7.4 14-27.2 25.5-47.1 25.5-44.6 0-75.3-34.7-75.3-80.6 0-45.9 30.8-80.6 75.3-80.6 19.9 0 39.8 11.8 47.1 25.8v-22h49zm-49 76.7c0-21-14.7-39.2-36.9-39.2-22.1 0-36.9 18.2-36.9 39.2 0 21.3 14.7 39.2 36.9 39.2 22.1 0 36.9-17.8 36.9-39.2zM2063.6 523v153.5h-49v-21.7c-7.4 14-27.2 25.5-47.1 25.5-44.6 0-75.3-34.7-75.3-80.6 0-45.9 30.8-80.6 75.3-80.6 19.9 0 39.8 11.8 47.1 25.8v-22h49zm-49 76.7c0-21-14.7-39.2-36.9-39.2-22.1 0-36.9 18.2-36.9 39.2 0 21.3 14.7 39.2 36.9 39.2 22.1 0 36.9-17.8 36.9-39.2z"/></g></svg>