<svg xmlns="http://www.w3.org/2000/svg" viewBox="0 0 2267.7 1133.9"><path d="M732 412.9l-338 154 408.2 362.9 317.5-317.5"/><path d="M431.9 527.8l324.2-220.9 338.7 272.7-315.3-375.5"/><path d="M432.8 539.8l299.5-138.5 359 188.3-335.7-269.7"/><g><path d="M1324.2 544.7h-29.8l-50-139.3h34.6l30.4 98.3 30.2-98.3h35.2l-50.6 139.3zM1464.9 448.8v95.9h-30.6v-13.5c-4.6 8.8-17 15.9-29.4 15.9-27.8 0-47-21.7-47-50.4s19.2-50.4 47-50.4c12.4 0 24.8 7.4 29.4 16.1v-13.7h30.6zm-30.6 47.9c0-13.1-9.2-24.5-23-24.5s-23 11.3-23 24.5c0 13.3 9.2 24.5 23 24.5s23-11.1 23-24.5zM1475.9 448.8h30.6v13.9c5.4-10.4 16.6-16.3 31.6-16.3 12.4 0 21.8 4.2 27 10.9 6 7.4 7.6 16.7 7.6 30.5v56.9h-30.6v-49.2c0-13.7-4.2-23.3-17-23.3-12.4 0-18.6 9.6-18.6 24.3v48.2h-30.6v-95.9zM1648.4 544.7c-4.6.8-11.4 1.6-20.4 1.6-14.4 0-34.2-1.8-34.2-33.8v-41h-15.2v-22.7h15.2v-28.5h30.4v28.5h22v22.7h-22v34.2c0 14.1 5.6 16.3 13.2 16.3 3.8 0 8.2-.2 11-.6v23.3zM1758.8 448.8v95.9h-30.6v-13.5c-4.6 8.8-17 15.9-29.4 15.9-27.8 0-47-21.7-47-50.4s19.2-50.4 47-50.4c12.4 0 24.8 7.4 29.4 16.1v-13.7h30.6zm-30.6 47.9c0-13.1-9.2-24.5-23-24.5s-23 11.3-23 24.5c0 13.3 9.2 24.5 23 24.5s23-11.1 23-24.5zM1873.7 448.8v95.9h-30.6v-13.5c-4.6 8.8-17 15.9-29.4 15.9-27.8 0-47-21.7-47-50.4s19.2-50.4 47-50.4c12.4 0 24.8 7.4 29.4 16.1v-13.7h30.6zm-30.6 47.9c0-13.1-9.2-24.5-23-24.5s-23 11.3-23 24.5c0 13.3 9.2 24.5 23 24.5s23-11.1 23-24.5z"/></g><g><path d="M1324 726.1h-29.7l-49.9-139.3h34.5l30.3 98.3 30.1-98.3h35.1L1324 726.1zM1464.5 630.2v95.9H1434v-13.5c-4.6 8.8-17 15.9-29.3 15.9-27.7 0-46.9-21.7-46.9-50.4s19.2-50.4 46.9-50.4c12.4 0 24.7 7.4 29.3 16.1v-13.7h30.5zm-30.6 47.9c0-13.1-9.2-24.5-22.9-24.5s-23 11.4-23 24.5c0 13.3 9.2 24.5 22.9 24.5s23-11.1 23-24.5zM1475.4 630.2h30.5v13.9c5.4-10.4 16.6-16.3 31.5-16.3 12.4 0 21.7 4.2 26.9 10.9 6 7.4 7.6 16.7 7.6 30.5v56.9h-30.5v-49.2c0-13.7-4.2-23.3-17-23.3-12.4 0-18.6 9.6-18.6 24.3v48.2h-30.5v-95.9zM1654.8 712.6c-4.6 8.8-17 15.9-29.3 15.9-27.7 0-46.9-21.7-46.9-50.4s19.2-50.4 46.9-50.4c12.4 0 24.7 7.4 29.3 16.1v-57.1h30.5V726h-30.5v-13.4zm0-34.5c0-13.1-9.2-24.5-22.9-24.5-13.8 0-22.9 11.3-22.9 24.5 0 13.3 9.2 24.5 22.9 24.5s22.9-11.1 22.9-24.5zM1800 630.2v95.9h-30.5v-13.5c-4.6 8.8-17 15.9-29.3 15.9-27.7 0-46.9-21.7-46.9-50.4s19.2-50.4 46.9-50.4c12.4 0 24.7 7.4 29.3 16.1v-13.7h30.5zm-30.5 47.9c0-13.1-9.2-24.5-22.9-24.5-13.8 0-22.9 11.3-22.9 24.5 0 13.3 9.2 24.5 22.9 24.5s22.9-11.1 22.9-24.5z"/></g></svg>