<svg xmlns="http://www.w3.org/2000/svg" viewBox="0 0 1133.9 1133.9"><path fill="#004F9F" d="M589.6 204.1L204.1 566.9l408.2 362.9 317.5-317.5"/><path fill="#378DCC" d="M204.1 566.9l362.8-249.4 362.9 294.8-317.5 317.5"/><path fill="#71CBF4" d="M929.8 612.3L544.3 408.2 204.1 566.9l408.2 362.9"/><g><g fill="#FFF"><path d="M408.2 655.4h-23.8l-39.9-111.1h27.6l24.3 78.4 24.1-78.4h28.1l-40.4 111.1zM520.7 578.9v76.5h-24.4v-10.8c-3.7 7-13.6 12.7-23.5 12.7-22.2 0-37.6-17.3-37.6-40.2s15.3-40.2 37.6-40.2c9.9 0 19.8 5.9 23.5 12.9v-11h24.4zm-24.5 38.2c0-10.5-7.4-19.5-18.4-19.5-11 0-18.4 9-18.4 19.5 0 10.6 7.4 19.5 18.4 19.5 11.1 0 18.4-8.8 18.4-19.5zM529.5 578.9h24.4V590c4.3-8.3 13.3-13 25.2-13 9.9 0 17.4 3.3 21.6 8.7 4.8 5.9 6.1 13.3 6.1 24.3v45.4h-24.4v-39.2c0-11-3.4-18.6-13.6-18.6-9.9 0-14.9 7.6-14.9 19.4v38.4h-24.4v-76.5zM673.1 644.6c-3.7 7-13.6 12.7-23.5 12.7-22.2 0-37.6-17.3-37.6-40.2s15.3-40.2 37.6-40.2c9.9 0 19.8 5.9 23.5 12.9v-45.6h24.4v111.1h-24.4v-10.7zm0-27.5c0-10.5-7.4-19.5-18.4-19.5-11 0-18.4 9-18.4 19.5 0 10.6 7.4 19.5 18.4 19.5 11.1 0 18.4-8.8 18.4-19.5zM789.4 578.9v76.5H765v-10.8c-3.7 7-13.6 12.7-23.5 12.7-22.2 0-37.6-17.3-37.6-40.2s15.3-40.2 37.6-40.2c9.9 0 19.8 5.9 23.5 12.9v-11h24.4zM765 617.1c0-10.5-7.4-19.5-18.4-19.5-11 0-18.4 9-18.4 19.5 0 10.6 7.4 19.5 18.4 19.5 11 0 18.4-8.8 18.4-19.5z"/></g></g></svg>