<svg xmlns="http://www.w3.org/2000/svg" viewBox="0 0 1133.9 1133.9"><path fill="#004F9F" d="M589.6 85L204.1 447.9l408.2 362.8 317.5-317.5"/><path fill="#378DCC" d="M204.1 447.9l362.8-249.5 362.9 294.8-317.5 317.5"/><path fill="#71CBF4" d="M929.8 493.2L544.3 289.1 204.1 447.9l408.2 362.8"/><g><path d="M336 1046h-34.6l-58.1-161.6h40.2l35.3 114.1 35.1-114.1h40.9L336 1046zM499.6 934.7V1046H464v-15.7c-5.3 10.2-19.8 18.5-34.2 18.5-32.3 0-54.6-25.2-54.6-58.4s22.3-58.4 54.6-58.4c14.4 0 28.8 8.5 34.2 18.7v-15.9h35.6zm-35.5 55.7c0-15.2-10.7-28.4-26.7-28.4s-26.7 13.2-26.7 28.4c0 15.5 10.7 28.4 26.7 28.4s26.7-12.9 26.7-28.4zM512.4 934.7H548v16.2c6.3-12 19.3-18.9 36.7-18.9 14.4 0 25.3 4.8 31.4 12.7 7 8.5 8.8 19.4 8.8 35.3v66h-35.6v-57c0-15.9-4.9-27-19.8-27-14.4 0-21.6 11.1-21.6 28.2v55.9h-35.6V934.7zM721.4 1030.3c-5.3 10.2-19.8 18.5-34.2 18.5-32.3 0-54.6-25.2-54.6-58.4s22.3-58.4 54.6-58.4c14.4 0 28.8 8.5 34.2 18.7v-66.3H757V1046h-35.6v-15.7zm0-39.9c0-15.2-10.7-28.4-26.7-28.4S668 975.2 668 990.4c0 15.5 10.7 28.4 26.7 28.4s26.7-12.9 26.7-28.4zM890.6 934.7V1046H855v-15.7c-5.3 10.2-19.8 18.5-34.2 18.5-32.3 0-54.6-25.2-54.6-58.4s22.3-58.4 54.6-58.4c14.4 0 28.8 8.5 34.2 18.7v-15.9h35.6zM855 990.4c0-15.2-10.7-28.4-26.7-28.4s-26.7 13.2-26.7 28.4c0 15.5 10.7 28.4 26.7 28.4 16.1 0 26.7-12.9 26.7-28.4z"/></g></svg>