<svg xmlns="http://www.w3.org/2000/svg" viewBox="0 0 1133.9 1133.9"><path fill="#004F9F" d="M589.6 85L204.1 447.9l408.2 362.8 317.5-317.5"/><path fill="#378DCC" d="M204.1 447.9l362.8-249.5 362.9 294.8-317.5 317.5"/><path fill="#71CBF4" d="M929.8 493.2L544.3 289.1 204.1 447.9l408.2 362.8"/><g><path d="M296.1 1046h-34.3l-57.6-161.6H244l35 114.1 34.8-114.1h40.6L296.1 1046zM458.4 934.7V1046h-35.3v-15.7c-5.3 10.2-19.6 18.5-33.9 18.5-32 0-54.2-25.2-54.2-58.4s22.1-58.4 54.2-58.4c14.3 0 28.6 8.5 33.9 18.7v-15.9h35.3zm-35.3 55.7c0-15.2-10.6-28.4-26.5-28.4s-26.5 13.2-26.5 28.4c0 15.5 10.6 28.4 26.5 28.4s26.5-12.9 26.5-28.4zM471 934.7h35.3v16.2c6.2-12 19.1-18.9 36.4-18.9 14.3 0 25.1 4.8 31.1 12.7 6.9 8.5 8.8 19.4 8.8 35.3v66h-35.3v-57c0-15.9-4.8-27-19.6-27-14.3 0-21.4 11.1-21.4 28.2v55.9H471V934.7zM670 1046c-5.3.9-13.1 1.8-23.5 1.8-16.6 0-39.4-2.1-39.4-39.3v-47.6h-17.5v-26.3H607v-33h35v33h25.4v26.3H642v39.7c0 16.4 6.5 18.9 15.2 18.9 4.4 0 9.5-.2 12.7-.7v27.2zM797.2 934.7V1046h-35.3v-15.7c-5.3 10.2-19.6 18.5-33.9 18.5-32 0-54.2-25.2-54.2-58.4S696 932 728.1 932c14.3 0 28.6 8.5 33.9 18.7v-15.9h35.2zm-35.3 55.7c0-15.2-10.6-28.4-26.5-28.4s-26.5 13.2-26.5 28.4c0 15.5 10.6 28.4 26.5 28.4s26.5-12.9 26.5-28.4zM929.8 934.7V1046h-35.3v-15.7c-5.3 10.2-19.6 18.5-33.9 18.5-32 0-54.2-25.2-54.2-58.4s22.1-58.4 54.2-58.4c14.3 0 28.6 8.5 33.9 18.7v-15.9h35.3zm-35.3 55.7c0-15.2-10.6-28.4-26.5-28.4s-26.5 13.2-26.5 28.4c0 15.5 10.6 28.4 26.5 28.4s26.5-12.9 26.5-28.4z"/></g></svg>